HIERARCHY
ROOT LrigPelvis
{
	OFFSET 0.000000 0.000000 0.000000
	CHANNELS 6 Xposition Yposition Zposition Xrotation Yrotation Zrotation
	JOINT LrigSpine1
	{
		OFFSET 0.000000 0.000000 0.000000
		CHANNELS 6 Xposition Yposition Zposition Xrotation Yrotation Zrotation
		JOINT LrigSpine2
		{
			OFFSET 0.000000 0.000000 0.000000
			CHANNELS 6 Xposition Yposition Zposition Xrotation Yrotation Zrotation
			JOINT LrigRibcage
			{
				OFFSET 0.000000 0.000000 0.000000
				CHANNELS 6 Xposition Yposition Zposition Xrotation Yrotation Zrotation
				JOINT LrigNeck1
				{
					OFFSET 0.000000 0.000000 0.000000
					CHANNELS 6 Xposition Yposition Zposition Xrotation Yrotation Zrotation
					JOINT LrigNeck2
					{
						OFFSET 0.000000 0.000000 0.000000
						CHANNELS 6 Xposition Yposition Zposition Xrotation Yrotation Zrotation
						JOINT LrigNeck3
						{
							OFFSET 0.000000 0.000000 0.000000
							CHANNELS 6 Xposition Yposition Zposition Xrotation Yrotation Zrotation
							JOINT LrigScull
							{
								OFFSET 0.000000 0.000000 0.000000
								CHANNELS 6 Xposition Yposition Zposition Xrotation Yrotation Zrotation
								JOINT LrigScullBone001
								{
									OFFSET 0.000000 0.000000 0.000000
									CHANNELS 6 Xposition Yposition Zposition Xrotation Yrotation Zrotation
									End Site
									{
										OFFSET 0.000000 5.000000 0.000000
									}
								}
							}
						}
					}
				}
				JOINT Lrig_LEG_FL_Scapula
				{
					OFFSET 0.000000 0.000000 0.000000
					CHANNELS 6 Xposition Yposition Zposition Xrotation Yrotation Zrotation
					JOINT Lrig_LEG_FL_Humerus
					{
						OFFSET 0.000000 0.000000 0.000000
						CHANNELS 6 Xposition Yposition Zposition Xrotation Yrotation Zrotation
						JOINT Lrig_LEG_FL_Radius
						{
							OFFSET 0.000000 0.000000 0.000000
							CHANNELS 6 Xposition Yposition Zposition Xrotation Yrotation Zrotation
							JOINT Lrig_LEG_FL_Metacarpus
							{
								OFFSET 0.000000 0.000000 0.000000
								CHANNELS 6 Xposition Yposition Zposition Xrotation Yrotation Zrotation
								JOINT Lrig_LEG_FL_PhalangesManus
								{
									OFFSET 0.000000 0.000000 0.000000
									CHANNELS 6 Xposition Yposition Zposition Xrotation Yrotation Zrotation
									JOINT Lrig_LEG_FL_FrontHoof
									{
										OFFSET 0.000000 0.000000 0.000000
										CHANNELS 6 Xposition Yposition Zposition Xrotation Yrotation Zrotation
										End Site
										{
											OFFSET 0.000000 5.000000 0.000000
										}
									}
								}
							}
						}
					}
				}
				JOINT Lrig_LEG_FR_Scapula
				{
					OFFSET 0.000000 0.000000 0.000000
					CHANNELS 6 Xposition Yposition Zposition Xrotation Yrotation Zrotation
					JOINT Lrig_LEG_FR_Humerus
					{
						OFFSET 0.000000 0.000000 0.000000
						CHANNELS 6 Xposition Yposition Zposition Xrotation Yrotation Zrotation
						JOINT Lrig_LEG_FR_Radius
						{
							OFFSET 0.000000 0.000000 0.000000
							CHANNELS 6 Xposition Yposition Zposition Xrotation Yrotation Zrotation
							JOINT Lrig_LEG_FR_Metacarpus
							{
								OFFSET 0.000000 0.000000 0.000000
								CHANNELS 6 Xposition Yposition Zposition Xrotation Yrotation Zrotation
								JOINT Lrig_LEG_FR_PhalangesManus
								{
									OFFSET 0.000000 0.000000 0.000000
									CHANNELS 6 Xposition Yposition Zposition Xrotation Yrotation Zrotation
									JOINT Lrig_LEG_FR_FrontHoof
									{
										OFFSET 0.000000 0.000000 0.000000
										CHANNELS 6 Xposition Yposition Zposition Xrotation Yrotation Zrotation
										End Site
										{
											OFFSET 0.000000 5.000000 0.000000
										}
									}
								}
							}
						}
					}
				}
				JOINT LrigLWingCollarbone
				{
					OFFSET 0.000000 0.000000 0.000000
					CHANNELS 6 Xposition Yposition Zposition Xrotation Yrotation Zrotation
					JOINT LrigLWing1
					{
						OFFSET 0.000000 0.000000 0.000000
						CHANNELS 6 Xposition Yposition Zposition Xrotation Yrotation Zrotation
						JOINT LrigLWing2
						{
							OFFSET 0.000000 0.000000 0.000000
							CHANNELS 6 Xposition Yposition Zposition Xrotation Yrotation Zrotation
							JOINT LrigLWingPalm
							{
								OFFSET 0.000000 0.000000 0.000000
								CHANNELS 6 Xposition Yposition Zposition Xrotation Yrotation Zrotation
								End Site
								{
									OFFSET 0.000000 5.000000 0.000000
								}
							}
						}
					}
				}
				JOINT LrigRWingCollarbone
				{
					OFFSET 0.000000 0.000000 0.000000
					CHANNELS 6 Xposition Yposition Zposition Xrotation Yrotation Zrotation
					JOINT LrigRWing1
					{
						OFFSET 0.000000 0.000000 0.000000
						CHANNELS 6 Xposition Yposition Zposition Xrotation Yrotation Zrotation
						JOINT LrigRWing2
						{
							OFFSET 0.000000 0.000000 0.000000
							CHANNELS 6 Xposition Yposition Zposition Xrotation Yrotation Zrotation
							JOINT LrigRWingPalm
							{
								OFFSET 0.000000 0.000000 0.000000
								CHANNELS 6 Xposition Yposition Zposition Xrotation Yrotation Zrotation
								End Site
								{
									OFFSET 0.000000 5.000000 0.000000
								}
							}
						}
					}
				}
				JOINT weapon_bone
				{
					OFFSET 0.000000 0.000000 0.000000
					CHANNELS 6 Xposition Yposition Zposition Xrotation Yrotation Zrotation
					End Site
					{
						OFFSET 0.000000 5.000000 0.000000
					}
				}
			}
		}
	}
	JOINT Lrig_LEG_BR_Femur
	{
		OFFSET 0.000000 0.000000 0.000000
		CHANNELS 6 Xposition Yposition Zposition Xrotation Yrotation Zrotation
		JOINT Lrig_LEG_BR_Tibia
		{
			OFFSET 0.000000 0.000000 0.000000
			CHANNELS 6 Xposition Yposition Zposition Xrotation Yrotation Zrotation
			JOINT Lrig_LEG_BR_LargeCannon
			{
				OFFSET 0.000000 0.000000 0.000000
				CHANNELS 6 Xposition Yposition Zposition Xrotation Yrotation Zrotation
				JOINT Lrig_LEG_BR_PhalanxPrima
				{
					OFFSET 0.000000 0.000000 0.000000
					CHANNELS 6 Xposition Yposition Zposition Xrotation Yrotation Zrotation
					JOINT Lrig_LEG_BR_RearHoof
					{
						OFFSET 0.000000 0.000000 0.000000
						CHANNELS 6 Xposition Yposition Zposition Xrotation Yrotation Zrotation
						End Site
						{
							OFFSET 0.000000 5.000000 0.000000
						}
					}
				}
			}
		}
	}
	JOINT Lrig_LEG_BL_Femur
	{
		OFFSET 0.000000 0.000000 0.000000
		CHANNELS 6 Xposition Yposition Zposition Xrotation Yrotation Zrotation
		JOINT Lrig_LEG_BL_Tibia
		{
			OFFSET 0.000000 0.000000 0.000000
			CHANNELS 6 Xposition Yposition Zposition Xrotation Yrotation Zrotation
			JOINT Lrig_LEG_BL_LargeCannon
			{
				OFFSET 0.000000 0.000000 0.000000
				CHANNELS 6 Xposition Yposition Zposition Xrotation Yrotation Zrotation
				JOINT Lrig_LEG_BL_PhalanxPrima
				{
					OFFSET 0.000000 0.000000 0.000000
					CHANNELS 6 Xposition Yposition Zposition Xrotation Yrotation Zrotation
					JOINT Lrig_LEG_BL_RearHoof
					{
						OFFSET 0.000000 0.000000 0.000000
						CHANNELS 6 Xposition Yposition Zposition Xrotation Yrotation Zrotation
						End Site
						{
							OFFSET 0.000000 5.000000 0.000000
						}
					}
				}
			}
		}
	}
}
MOTION
Frames: 4
Frame Time: 0.041667
0.381339 1.828184 37.911495 -9.408234 85.263307 -78.396126 0.000000 0.000000 0.000000 -0.334986 1.768588 -3.760791 5.362307 -0.000000 0.000000 -3.588763 1.467247 -2.744217 5.362307 -0.000006 0.000000 -0.531027 -2.585675 4.555979 -0.000002 0.000001 0.000000 0.000235 -0.000535 -55.002690 8.008852 0.000000 -0.000000 0.000535 -0.000097 -28.662100 7.824182 -0.000004 -0.000001 0.000209 0.000665 -7.950821 7.113199 -0.000004 -0.000000 -0.000344 -0.000056 108.674109 5.607286 4.872430 0.000001 0.000000 0.000000 0.000000 -1.359047 -0.502208 2.742350 -159.012104 -14.494969 -73.616810 9.263968 -0.000003 -0.000004 -28.371271 -31.091868 -23.619493 6.653763 -0.000002 0.000000 -6.507578 11.179946 107.938320 9.232680 -0.000002 0.000003 2.751887 2.091523 -120.591375 11.202319 -0.000002 -0.000002 5.735802 5.438249 29.895632 3.457448 -0.323214 -0.030625 2.553717 -1.025098 -41.240945 -1.359048 -0.502211 -2.742349 164.520829 11.739283 -70.587772 9.263965 0.000001 -0.000002 9.818131 23.732469 -44.925791 6.653773 -0.000001 -0.000001 4.218582 -6.205754 58.457738 9.232683 -0.000001 -0.000003 0.376581 -4.565748 -57.067405 11.202322 -0.000003 -0.000000 0.165720 0.127385 33.729130 3.457446 -0.323215 0.030626 7.389833 -0.277042 -29.134104 -5.179141 0.827905 1.788659 98.623191 -105.154218 33.655238 2.940839 0.000005 0.000001 -111.305610 11.466429 -31.374003 8.136323 -0.000004 -0.000001 13.803865 3.937181 56.644856 14.508142 -0.000002 -0.000001 -0.926742 8.135851 -54.728738 -5.179140 0.827909 -1.788659 -98.623191 105.154225 33.655238 2.940845 0.000001 -0.000001 111.305610 -11.466429 -31.374013 8.136320 0.000002 0.000001 -13.803899 -3.937213 56.644794 14.508138 0.000002 -0.000001 0.926739 -8.135851 -54.728738 29.019041 0.680191 0.000013 -0.000000 -0.000000 -0.378840 -6.748742 4.002028 -4.430604 167.950568 -13.068274 -48.439107 9.149280 0.000006 0.000001 2.216128 3.225318 -156.756298 5.826585 0.000001 -0.000001 0.714253 -4.161062 110.300185 17.801519 -0.000004 0.000002 1.292427 2.003678 29.709021 3.575816 0.247351 0.022603 2.509115 -0.310514 -44.041627 -6.748739 4.002031 4.430603 175.141077 -7.671358 -62.569539 9.149273 0.000004 0.000000 -2.078357 -1.074668 -78.515620 5.826588 0.000007 0.000001 3.433810 3.621264 41.048798 17.801516 -0.000000 -0.000000 -21.036467 -1.739294 41.924896 3.575814 0.247351 -0.022602 -0.451663 0.478191 -26.927138 
0.381339 1.828184 37.911495 -9.408234 85.263307 -78.396126 0.000000 0.000000 0.000000 -0.334986 1.768588 -3.760791 5.362307 -0.000000 0.000000 -3.588763 1.467247 -2.744217 5.362307 -0.000006 0.000000 -0.531027 -2.585675 4.555979 -0.000002 0.000001 0.000000 0.000235 -0.000535 -55.002690 8.008852 0.000000 -0.000000 0.000535 -0.000097 -28.662100 7.824182 -0.000004 -0.000001 0.000209 0.000665 -7.950821 7.113199 -0.000004 -0.000000 -0.000344 -0.000056 108.674109 5.607286 4.872430 0.000001 0.000000 0.000000 0.000000 -1.359047 -0.502208 2.742350 -159.012104 -14.494969 -73.616810 9.263968 -0.000003 -0.000004 -28.371271 -31.091868 -23.619493 6.653763 -0.000002 0.000000 -6.507578 11.179946 107.938320 9.232680 -0.000002 0.000003 2.751887 2.091523 -120.591375 11.202319 -0.000002 -0.000002 5.735802 5.438249 29.895632 3.457448 -0.323214 -0.030625 2.553717 -1.025098 -41.240945 -1.359048 -0.502211 -2.742349 164.520829 11.739283 -70.587772 9.263965 0.000001 -0.000002 9.818131 23.732469 -44.925791 6.653773 -0.000001 -0.000001 4.218582 -6.205754 58.457738 9.232683 -0.000001 -0.000003 0.376581 -4.565748 -57.067405 11.202322 -0.000003 -0.000000 0.165720 0.127385 33.729130 3.457446 -0.323215 0.030626 7.389833 -0.277042 -29.134104 -5.179141 0.827905 1.788659 98.623191 -105.154218 33.655238 2.940839 0.000005 0.000001 -111.305610 11.466429 -31.374003 8.136323 -0.000004 -0.000001 13.803865 3.937181 56.644856 14.508142 -0.000002 -0.000001 -0.926742 8.135851 -54.728738 -5.179140 0.827909 -1.788659 -98.623191 105.154225 33.655238 2.940845 0.000001 -0.000001 111.305610 -11.466429 -31.374013 8.136320 0.000002 0.000001 -13.803899 -3.937213 56.644794 14.508138 0.000002 -0.000001 0.926739 -8.135851 -54.728738 29.019041 0.680191 0.000013 -0.000000 -0.000000 -0.378840 -6.748742 4.002028 -4.430604 167.950568 -13.068274 -48.439107 9.149280 0.000006 0.000001 2.216128 3.225318 -156.756298 5.826585 0.000001 -0.000001 0.714253 -4.161062 110.300185 17.801519 -0.000004 0.000002 1.292427 2.003678 29.709021 3.575816 0.247351 0.022603 2.509115 -0.310514 -44.041627 -6.748739 4.002031 4.430603 175.141077 -7.671358 -62.569539 9.149273 0.000004 0.000000 -2.078357 -1.074668 -78.515620 5.826588 0.000007 0.000001 3.433810 3.621264 41.048798 17.801516 -0.000000 -0.000000 -21.036467 -1.739294 41.924896 3.575814 0.247351 -0.022602 -0.451663 0.478191 -26.927138 
-0.099144 1.828184 38.122440 -10.958543 84.744759 -76.965898 0.000000 0.000000 -0.000000 -0.470746 -0.169007 -3.544945 5.362306 0.000001 0.000000 -3.978503 0.899029 -2.610947 5.362307 -0.000009 0.000000 -0.751395 0.131137 4.489201 -0.000000 -0.000001 0.000000 0.000235 -0.000535 -55.002684 8.008851 0.000003 0.000000 0.000535 -0.000097 -28.662100 7.824179 -0.000004 -0.000001 0.000209 0.000665 -7.950821 7.113205 -0.000003 0.000000 -0.000344 -0.000056 108.674109 5.607287 4.872429 0.000001 0.000000 0.000000 0.000000 -1.359045 -0.502210 2.742350 -159.932650 -13.974926 -73.089943 9.263971 -0.000002 -0.000001 -26.427675 -31.608483 -33.468586 6.653761 -0.000003 0.000002 -7.632814 12.202422 117.792131 9.232680 0.000001 0.000004 3.539163 2.546335 -113.937609 11.202325 0.000000 -0.000002 5.599094 3.156233 29.699049 3.457445 -0.323214 -0.030625 1.038744 -1.382100 -38.402083 -1.359046 -0.502212 -2.742349 163.504593 12.186747 -71.125342 9.263965 0.000002 -0.000002 13.327857 24.221024 -44.564204 6.653770 -0.000001 -0.000001 4.434070 -6.945845 65.454925 9.232680 0.000001 -0.000003 -0.280071 -4.672647 -67.417813 11.202321 -0.000003 -0.000000 0.023712 0.252882 35.655117 3.457448 -0.323215 0.030626 4.732129 0.206825 -38.124917 -5.179140 0.827905 1.788659 98.623191 -105.154225 33.655241 2.940841 0.000003 0.000002 -111.305610 11.466431 -31.374013 8.136322 0.000005 -0.000001 13.803864 3.937178 56.644859 14.508143 -0.000001 -0.000000 -0.926740 8.135850 -54.728738 -5.179139 0.827910 -1.788659 -98.623191 105.154225 33.655241 2.940847 -0.000002 0.000000 111.305610 -11.466431 -31.374009 8.136318 0.000002 0.000000 -13.803901 -3.937213 56.644804 14.508142 0.000002 -0.000001 0.926741 -8.135850 -54.728738 29.019043 0.680188 0.000013 0.000000 -0.000000 -0.378840 -6.748743 4.002026 -4.430604 169.018099 -13.821450 -47.520635 9.149282 0.000005 0.000001 2.245672 2.938880 -151.337840 5.826586 -0.000000 -0.000001 0.389116 -4.338484 105.014329 17.801517 -0.000004 0.000001 1.382343 1.349776 30.621907 3.575815 0.247352 0.022603 1.719506 -0.700249 -38.438420 -6.748739 4.002030 4.430604 174.684943 -8.903623 -74.200552 9.149273 0.000005 -0.000000 -1.908140 -0.983358 -67.179917 5.826585 0.000004 0.000001 3.774205 3.188740 33.412657 17.801516 -0.000002 -0.000000 -14.790650 -3.460652 49.383682 3.575813 0.247351 -0.022601 -5.610211 4.587413 -25.753457 
-0.536658 1.828184 37.911495 -9.624506 85.263089 -78.395074 -0.000000 -0.000001 -0.000000 -0.502624 -2.088475 -3.358460 5.362305 -0.000000 -0.000000 -3.623180 -0.021341 -2.521895 5.362307 -0.000010 -0.000000 -0.813277 2.777246 4.452239 -0.000000 0.000000 0.000000 0.000235 -0.000535 -55.002687 8.008859 0.000003 0.000000 0.000535 -0.000097 -28.662100 7.824175 -0.000005 -0.000001 0.000209 0.000665 -7.950821 7.113201 -0.000003 0.000000 -0.000344 -0.000056 108.674109 5.607287 4.872427 0.000001 0.000000 0.000000 0.000000 -1.359045 -0.502208 2.742351 -161.026819 -13.389467 -72.475315 9.263971 -0.000004 -0.000003 -24.657114 -30.511169 -46.666147 6.653765 -0.000003 0.000002 -8.044685 11.999666 115.649023 9.232680 -0.000001 0.000004 3.934651 4.441855 -92.708152 11.202319 -0.000000 -0.000002 4.626124 0.438240 29.542361 3.457445 -0.323217 -0.030625 -0.341404 -1.325589 -35.911950 -1.359046 -0.502213 -2.742349 162.354703 12.724425 -71.744464 9.263968 -0.000001 -0.000003 17.398216 25.044536 -42.737166 6.653771 -0.000001 -0.000002 4.795336 -8.059448 76.094584 9.232681 -0.000001 -0.000003 -1.267048 -4.515730 -82.304729 11.202322 -0.000002 -0.000000 -0.431157 0.046004 34.950778 3.457447 -0.323215 0.030627 1.783565 0.640902 -51.446740 -5.179139 0.827906 1.788659 98.623191 -105.154225 33.655241 2.940840 0.000003 0.000000 -111.305610 11.466430 -31.374006 8.136326 -0.000000 0.000000 13.803865 3.937177 56.644856 14.508143 -0.000002 0.000000 -0.926739 8.135850 -54.728738 -5.179138 0.827910 -1.788659 -98.623191 105.154225 33.655241 2.940841 0.000002 -0.000000 111.305610 -11.466430 -31.374009 8.136320 0.000001 0.000001 -13.803900 -3.937213 56.644794 14.508138 0.000002 0.000000 0.926739 -8.135851 -54.728738 29.019039 0.680186 0.000013 0.000000 -0.000000 -0.378840 -6.748742 4.002027 -4.430604 171.028715 -13.047789 -45.767858 9.149282 0.000006 0.000000 2.323742 2.669769 -147.605497 5.826586 0.000002 -0.000000 0.126740 -4.490919 100.151112 17.801517 -0.000004 0.000001 1.912011 0.738426 32.247396 3.575815 0.247352 0.022603 1.447385 -1.333228 -33.637893 -6.748740 4.002036 4.430604 177.934310 -8.594355 -61.930398 9.149276 0.000004 -0.000001 -2.279409 -1.304362 -99.352861 5.826587 0.000008 0.000001 2.590252 4.270862 53.648366 17.801514 -0.000002 0.000000 -0.408625 -0.158751 32.056158 3.575814 0.247351 -0.022601 -21.294438 5.622265 -29.721121 
